<?xml version="1.0" standalone="no"?>
<!DOCTYPE svg PUBLIC "-//W3C//DTD SVG 20010904//EN"
 "http://www.w3.org/TR/2001/REC-SVG-20010904/DTD/svg10.dtd">
<svg version="1.0" xmlns="http://www.w3.org/2000/svg"
 width="500.000000pt" height="500.000000pt" viewBox="0 0 500.000000 500.000000"
 preserveAspectRatio="xMidYMid meet">
<metadata>
Created by potrace 1.14, written by Peter Selinger 2001-2017
</metadata>
<g transform="translate(0.000000,500.000000) scale(0.100000,-0.100000)"
fill="#000000" stroke="none">
<path d="M642 4474 c-57 -28 -96 -69 -123 -129 -18 -38 -19 -120 -19 -1846 l0
-1805 26 -52 c28 -57 69 -96 129 -123 38 -18 120 -19 1846 -19 l1805 0 52 26
c57 28 96 69 123 129 18 38 19 120 19 1845 0 1725 -1 1807 -19 1845 -27 60
-66 101 -123 129 l-52 26 -1806 0 -1806 0 -52 -26z m1538 -324 c0 -18 -48 -60
-67 -60 -10 0 -29 -7 -41 -16 -19 -13 -22 -24 -22 -75 l0 -59 45 0 45 0 0 39
c0 26 9 53 27 80 l27 41 77 0 c43 0 80 -4 84 -9 3 -5 0 -21 -6 -35 -10 -20
-19 -26 -46 -26 -33 0 -33 -1 -33 -45 l0 -45 40 0 40 0 0 51 c0 29 7 63 16 79
15 25 24 28 88 34 39 3 84 9 101 13 29 6 29 6 14 -18 -9 -13 -30 -33 -47 -44
-28 -18 -31 -25 -32 -67 l0 -48 40 0 40 0 0 56 c0 45 5 61 23 80 19 20 31 24
92 24 94 0 108 -10 71 -49 -15 -16 -35 -27 -42 -24 -11 4 -14 -6 -14 -41 l0
-46 45 0 45 0 0 44 c0 39 4 47 44 80 38 31 52 36 95 36 44 0 50 -2 44 -17 -3
-10 -16 -28 -29 -41 -17 -16 -24 -34 -24 -62 l0 -40 45 0 45 0 0 49 c0 45 3
52 37 80 35 29 43 31 117 31 74 0 78 -1 64 -17 -8 -10 -18 -26 -21 -35 -4 -12
-17 -18 -37 -18 -29 0 -30 -2 -30 -45 l0 -45 39 0 c37 0 39 1 43 38 3 21 19
57 34 80 l29 41 78 1 78 0 -17 -30 c-11 -18 -28 -30 -43 -32 -24 -3 -26 -7
-26 -48 l0 -45 48 -3 47 -3 0 56 c0 72 23 119 53 111 12 -3 52 -8 90 -12 61
-6 66 -8 54 -23 -8 -9 -17 -24 -20 -34 -5 -13 -13 -16 -27 -12 -18 6 -20 2
-20 -39 l0 -46 40 0 40 0 0 43 c0 31 3 38 10 27 6 -9 10 -170 10 -404 l0 -388
23 5 c51 12 248 39 253 35 11 -12 20 -140 10 -143 -6 -2 -63 -11 -126 -20
-158 -22 -160 -23 -160 -51 0 -23 0 -23 138 -26 l137 -3 3 -72 3 -73 -141 0
-140 0 0 -1015 0 -1015 -1147 2 -1148 3 -5 775 -5 775 -43 74 -42 74 35 32
c19 18 36 30 38 28 10 -10 35 45 26 58 -5 8 -9 292 -9 650 l0 636 50 -5 50 -5
0 42 c0 34 -3 41 -20 41 -23 0 -24 1 -9 33 11 25 47 37 116 37 19 0 43 10 62
26 34 28 51 25 51 -11 0 -16 -9 -28 -27 -37 -25 -12 -28 -19 -31 -71 l-3 -57
36 0 c35 0 35 0 35 43 0 23 5 59 11 80 l10 37 93 0 93 0 -5 -30 c-4 -25 -9
-30 -33 -30 -28 0 -29 -2 -29 -50 l0 -50 45 0 45 0 0 44 c0 24 7 60 15 80 13
31 20 36 48 37 17 0 66 13 107 29 87 33 90 34 90 20z m-1097 -1044 c4 -9 -8
-25 -28 -40 -33 -26 -34 -26 -40 -5 -13 39 54 82 68 45z"/>
<path d="M1618 3534 c-72 -22 -57 -33 22 -16 39 9 70 19 70 24 0 12 -38 9 -92
-8z"/>
<path d="M1700 3073 c0 -21 84 -288 92 -291 4 -2 6 -7 3 -12 -3 -4 14 -69 37
-144 45 -148 57 -161 97 -110 17 22 19 30 9 42 -10 13 -10 14 0 8 6 -4 12 -4
12 1 0 18 -115 358 -122 361 -5 2 -6 7 -4 11 9 14 -23 113 -41 127 -19 14 -83
19 -83 7z"/>
<path d="M2081 2054 c-67 -15 -79 -20 -68 -31 9 -8 137 27 137 38 0 5 -1 9 -2
8 -2 -1 -32 -7 -67 -15z"/>
<path d="M2119 1863 c5 -10 16 -27 25 -38 15 -19 15 -18 16 18 0 33 -3 37 -25
37 -21 0 -24 -3 -16 -17z"/>
<path d="M1961 1527 c-8 -11 -6 -18 9 -32 25 -22 30 -18 23 18 -6 30 -15 34
-32 14z"/>
</g>
</svg>
