<?xml version="1.0" standalone="no"?>
<!DOCTYPE svg PUBLIC "-//W3C//DTD SVG 20010904//EN"
 "http://www.w3.org/TR/2001/REC-SVG-20010904/DTD/svg10.dtd">
<svg version="1.0" xmlns="http://www.w3.org/2000/svg"
 width="500.000000pt" height="500.000000pt" viewBox="0 0 500.000000 500.000000"
 preserveAspectRatio="xMidYMid meet">
<metadata>
Created by potrace 1.14, written by Peter Selinger 2001-2017
</metadata>
<g transform="translate(0.000000,500.000000) scale(0.100000,-0.100000)"
fill="#000000" stroke="none">
<path d="M0 2500 l0 -2500 2500 0 2500 0 0 2500 0 2500 -2500 0 -2500 0 0
-2500z m4420 0 l0 -1920 -1920 0 -1920 0 0 1920 0 1920 1920 0 1920 0 0 -1920z"/>
<path d="M1305 3545 c-5 -2 -29 -9 -52 -15 -73 -18 -47 -28 32 -12 41 8 75 19
75 23 0 9 -35 11 -55 4z"/>
<path d="M725 3081 c-16 -10 -39 -28 -49 -40 -19 -20 -19 -23 -3 -57 21 -42
21 -42 2 -46 -12 -2 0 -33 50 -133 36 -71 84 -163 107 -203 37 -65 44 -73 66
-67 36 9 73 36 65 48 -3 6 -1 7 6 3 7 -5 26 6 47 27 l36 34 -74 119 c-41 66
-103 166 -139 223 -35 58 -68 106 -74 108 -5 1 -23 -5 -40 -16z m10 -184 c4 4
5 3 2 -3 -4 -7 4 -28 18 -48 13 -20 22 -36 20 -36 -3 0 12 -28 33 -62 70 -117
102 -177 94 -182 -5 -3 -23 23 -42 57 -18 34 -36 64 -40 67 -13 9 -120 217
-120 231 1 8 6 4 13 -9 7 -12 17 -19 22 -15z"/>
<path d="M1345 3068 c2 -7 16 -53 30 -103 15 -49 35 -115 45 -145 9 -30 35
-115 56 -189 22 -73 45 -135 52 -138 19 -8 57 22 59 46 1 11 -4 21 -10 21 -8
0 -7 3 2 9 11 7 9 24 -13 97 -15 49 -31 96 -36 105 -5 9 -12 33 -15 53 -4 20
-11 39 -16 42 -5 3 -9 15 -9 28 0 12 -3 26 -7 30 -5 4 -8 11 -8 14 -3 41 -31
115 -48 127 -27 19 -88 20 -82 3z"/>
<path d="M1732 2055 c-63 -12 -106 -35 -67 -35 31 0 135 32 135 41 0 5 -1 8
-2 8 -2 -1 -31 -7 -66 -14z"/>
<path d="M1760 1873 c0 -5 12 -21 26 -38 16 -19 23 -23 20 -12 -3 10 -6 27 -6
38 0 12 -7 19 -20 19 -11 0 -20 -3 -20 -7z"/>
<path d="M1613 1533 c-19 -7 -16 -27 7 -41 18 -11 20 -10 20 12 0 27 -8 36
-27 29z"/>
</g>
</svg>
